<svg width="69" height="64" viewBox="0 0 69 64" fill="none" xmlns="http://www.w3.org/2000/svg">
<path d="M18.1926 0L0 18.1926V45.1361L18.1926 63.3287H49.9721L68.1647 45.1361V18.1926L49.9721 0H18.1926Z" fill="#424559"/>
<path d="M20.125 4.14551L4.14505 20.155V43.8653L20.125 59.8748H48.0395L64.0195 43.8653V20.155L48.0395 4.14551H20.125Z" fill="#121425" stroke="#FFFFF8" stroke-width="2"/>
<path d="M22.1645 20.6H26.1325L34.3245 43H29.9085L28.0845 38.04H20.2125L18.3885 43H13.9725L22.1645 20.6ZM27.1245 34.456L24.1485 25.944H24.0845L21.2045 34.456H27.1245ZM36.58 20.6H50.628L54.052 24.056V31.896L50.596 35.384H40.932V43H36.58V20.6ZM48.644 31.736L49.764 30.616V25.368L48.644 24.248H40.932V31.736H48.644Z" fill="white"/>
</svg>
